<?xml version="1.0" encoding="utf-8"?>
<svg version="1.1" xmlns:xlink="http://www.w3.org/1999/xlink" width="98px" height="40px" xmlns="http://www.w3.org/2000/svg">
  <g transform="matrix(1 0 0 1 -1053 -1519 )">
    <path d="M 1054 1524  A 4 4 0 0 1 1058 1520 L 1146 1520  A 4 4 0 0 1 1150 1524 L 1150 1554  A 4 4 0 0 1 1146 1558 L 1058 1558  A 4 4 0 0 1 1054 1554 L 1054 1524  Z " fill-rule="nonzero" fill="#ffffff" stroke="none" />
    <path d="M 1053.5 1524  A 4.5 4.5 0 0 1 1058 1519.5 L 1146 1519.5  A 4.5 4.5 0 0 1 1150.5 1524 L 1150.5 1554  A 4.5 4.5 0 0 1 1146 1558.5 L 1058 1558.5  A 4.5 4.5 0 0 1 1053.5 1554 L 1053.5 1524  Z " stroke-width="1" stroke="#797979" fill="none" stroke-opacity="0.450980392156863" />
  </g>
</svg>