<?xml version="1.0" encoding="utf-8"?>
<svg version="1.1" xmlns:xlink="http://www.w3.org/1999/xlink" width="98px" height="40px" xmlns="http://www.w3.org/2000/svg">
  <g transform="matrix(1 0 0 1 -1175 -1520 )">
    <path d="M 1176 1525  A 4 4 0 0 1 1180 1521 L 1268 1521  A 4 4 0 0 1 1272 1525 L 1272 1555  A 4 4 0 0 1 1268 1559 L 1180 1559  A 4 4 0 0 1 1176 1555 L 1176 1525  Z " fill-rule="nonzero" fill="#ffffff" stroke="none" />
    <path d="M 1175.5 1525  A 4.5 4.5 0 0 1 1180 1520.5 L 1268 1520.5  A 4.5 4.5 0 0 1 1272.5 1525 L 1272.5 1555  A 4.5 4.5 0 0 1 1268 1559.5 L 1180 1559.5  A 4.5 4.5 0 0 1 1175.5 1555 L 1175.5 1525  Z " stroke-width="1" stroke="#797979" fill="none" stroke-opacity="0.450980392156863" />
  </g>
</svg>