<?xml version="1.0" encoding="utf-8"?>
<svg version="1.1" xmlns:xlink="http://www.w3.org/1999/xlink" width="146px" height="44px" viewBox="558 1109  146 44" xmlns="http://www.w3.org/2000/svg">
  <path d="M 559 1114  A 4 4 0 0 1 563 1110 L 699 1110  A 4 4 0 0 1 703 1114 L 703 1148  A 4 4 0 0 1 699 1152 L 563 1152  A 4 4 0 0 1 559 1148 L 559 1114  Z " fill-rule="nonzero" fill="#ffffff" stroke="none" />
  <path d="M 558.5 1114  A 4.5 4.5 0 0 1 563 1109.5 L 699 1109.5  A 4.5 4.5 0 0 1 703.5 1114 L 703.5 1148  A 4.5 4.5 0 0 1 699 1152.5 L 563 1152.5  A 4.5 4.5 0 0 1 558.5 1148 L 558.5 1114  Z " stroke-width="1" stroke="#797979" fill="none" stroke-opacity="0.337254901960784" />
</svg>