<?xml version="1.0" encoding="utf-8"?>
<svg version="1.1" xmlns:xlink="http://www.w3.org/1999/xlink" width="186px" height="44px" viewBox="1214 755  186 44" xmlns="http://www.w3.org/2000/svg">
  <path d="M 1215 760  A 4 4 0 0 1 1219 756 L 1395 756  A 4 4 0 0 1 1399 760 L 1399 794  A 4 4 0 0 1 1395 798 L 1219 798  A 4 4 0 0 1 1215 794 L 1215 760  Z " fill-rule="nonzero" fill="#ffffff" stroke="none" />
  <path d="M 1214.5 760  A 4.5 4.5 0 0 1 1219 755.5 L 1395 755.5  A 4.5 4.5 0 0 1 1399.5 760 L 1399.5 794  A 4.5 4.5 0 0 1 1395 798.5 L 1219 798.5  A 4.5 4.5 0 0 1 1214.5 794 L 1214.5 760  Z " stroke-width="1" stroke="#797979" fill="none" stroke-opacity="0.337254901960784" />
</svg>