<?xml version="1.0" encoding="utf-8"?>
<svg version="1.1" xmlns:xlink="http://www.w3.org/1999/xlink" width="12px" height="12px" viewBox="1330 1033  12 12" xmlns="http://www.w3.org/2000/svg">
  <path d="M 1336 1033  C 1339.36 1033  1342 1035.64  1342 1039  C 1342 1042.36  1339.36 1045  1336 1045  C 1332.64 1045  1330 1042.36  1330 1039  C 1330 1035.64  1332.64 1033  1336 1033  Z " fill-rule="nonzero" fill="#f0f0f0" stroke="none" />
  <path d="M 1336 1033.5  C 1339.08 1033.5  1341.5 1035.92  1341.5 1039  C 1341.5 1042.08  1339.08 1044.5  1336 1044.5  C 1332.92 1044.5  1330.5 1042.08  1330.5 1039  C 1330.5 1035.92  1332.92 1033.5  1336 1033.5  Z " stroke-width="1" stroke="#797979" fill="none" />
  <path d="M 1336 1042  C 1334.32 1042  1333 1040.68  1333 1039  C 1333 1037.32  1334.32 1036  1336 1036  C 1337.68 1036  1339 1037.32  1339 1039  C 1339 1040.68  1337.68 1042  1336 1042  " fill-rule="nonzero" fill="#797979" stroke="none" />
</svg>