<?xml version="1.0" encoding="utf-8"?>
<svg version="1.1" xmlns:xlink="http://www.w3.org/1999/xlink" width="300px" height="44px" viewBox="532 358  300 44" xmlns="http://www.w3.org/2000/svg">
  <path d="M 533 363  A 4 4 0 0 1 537 359 L 827 359  A 4 4 0 0 1 831 363 L 831 397  A 4 4 0 0 1 827 401 L 537 401  A 4 4 0 0 1 533 397 L 533 363  Z " fill-rule="nonzero" fill="#ffffff" stroke="none" />
  <path d="M 532.5 363  A 4.5 4.5 0 0 1 537 358.5 L 827 358.5  A 4.5 4.5 0 0 1 831.5 363 L 831.5 397  A 4.5 4.5 0 0 1 827 401.5 L 537 401.5  A 4.5 4.5 0 0 1 532.5 397 L 532.5 363  Z " stroke-width="1" stroke="#797979" fill="none" stroke-opacity="0.337254901960784" />
</svg>