<?xml version="1.0" encoding="utf-8"?>
<svg version="1.1" xmlns:xlink="http://www.w3.org/1999/xlink" width="12px" height="12px" viewBox="532 613  12 12" xmlns="http://www.w3.org/2000/svg">
  <path d="M 538 613  C 541.36 613  544 615.64  544 619  C 544 622.36  541.36 625  538 625  C 534.64 625  532 622.36  532 619  C 532 615.64  534.64 613  538 613  Z " fill-rule="nonzero" fill="#ffffff" stroke="none" />
  <path d="M 538 613.5  C 541.08 613.5  543.5 615.92  543.5 619  C 543.5 622.08  541.08 624.5  538 624.5  C 534.92 624.5  532.5 622.08  532.5 619  C 532.5 615.92  534.92 613.5  538 613.5  Z " stroke-width="1" stroke="#797979" fill="none" />
  <path d="M 538 622  C 536.32 622  535 620.68  535 619  C 535 617.32  536.32 616  538 616  C 539.68 616  541 617.32  541 619  C 541 620.68  539.68 622  538 622  " fill-rule="nonzero" fill="#797979" stroke="none" />
</svg>