<?xml version="1.0" encoding="utf-8"?>
<svg version="1.1" xmlns:xlink="http://www.w3.org/1999/xlink" width="186px" height="44px" viewBox="582 777  186 44" xmlns="http://www.w3.org/2000/svg">
  <path d="M 583 782  A 4 4 0 0 1 587 778 L 763 778  A 4 4 0 0 1 767 782 L 767 816  A 4 4 0 0 1 763 820 L 587 820  A 4 4 0 0 1 583 816 L 583 782  Z " fill-rule="nonzero" fill="#f0f0f0" stroke="none" />
  <path d="M 582.5 782  A 4.5 4.5 0 0 1 587 777.5 L 763 777.5  A 4.5 4.5 0 0 1 767.5 782 L 767.5 816  A 4.5 4.5 0 0 1 763 820.5 L 587 820.5  A 4.5 4.5 0 0 1 582.5 816 L 582.5 782  Z " stroke-width="1" stroke="#797979" fill="none" stroke-opacity="0.337254901960784" />
</svg>