<?xml version="1.0" encoding="utf-8"?>
<svg version="1.1" xmlns:xlink="http://www.w3.org/1999/xlink" width="62px" height="44px" viewBox="682 953  62 44" xmlns="http://www.w3.org/2000/svg">
  <path d="M 683 958  A 4 4 0 0 1 687 954 L 739 954  A 4 4 0 0 1 743 958 L 743 992  A 4 4 0 0 1 739 996 L 687 996  A 4 4 0 0 1 683 992 L 683 958  Z " fill-rule="nonzero" fill="#ffffff" stroke="none" />
  <path d="M 682.5 958  A 4.5 4.5 0 0 1 687 953.5 L 739 953.5  A 4.5 4.5 0 0 1 743.5 958 L 743.5 992  A 4.5 4.5 0 0 1 739 996.5 L 687 996.5  A 4.5 4.5 0 0 1 682.5 992 L 682.5 958  Z " stroke-width="1" stroke="#797979" fill="none" stroke-opacity="0.337254901960784" />
</svg>