<?xml version="1.0" encoding="utf-8"?>
<svg version="1.1" xmlns:xlink="http://www.w3.org/1999/xlink" width="300px" height="74px" viewBox="532 1184  300 74" xmlns="http://www.w3.org/2000/svg">
  <path d="M 533 1189  A 4 4 0 0 1 537 1185 L 827 1185  A 4 4 0 0 1 831 1189 L 831 1253  A 4 4 0 0 1 827 1257 L 537 1257  A 4 4 0 0 1 533 1253 L 533 1189  Z " fill-rule="nonzero" fill="#ffffff" stroke="none" />
  <path d="M 532.5 1189  A 4.5 4.5 0 0 1 537 1184.5 L 827 1184.5  A 4.5 4.5 0 0 1 831.5 1189 L 831.5 1253  A 4.5 4.5 0 0 1 827 1257.5 L 537 1257.5  A 4.5 4.5 0 0 1 532.5 1253 L 532.5 1189  Z " stroke-width="1" stroke="#797979" fill="none" stroke-opacity="0.337254901960784" />
</svg>