<?xml version="1.0" encoding="utf-8"?>
<svg version="1.1" xmlns:xlink="http://www.w3.org/1999/xlink" width="12px" height="12px" viewBox="532 1010  12 12" xmlns="http://www.w3.org/2000/svg">
  <path d="M 538 1010  C 541.36 1010  544 1012.64  544 1016  C 544 1019.36  541.36 1022  538 1022  C 534.64 1022  532 1019.36  532 1016  C 532 1012.64  534.64 1010  538 1010  Z " fill-rule="nonzero" fill="#ffffff" stroke="none" />
  <path d="M 538 1010.5  C 541.08 1010.5  543.5 1012.92  543.5 1016  C 543.5 1019.08  541.08 1021.5  538 1021.5  C 534.92 1021.5  532.5 1019.08  532.5 1016  C 532.5 1012.92  534.92 1010.5  538 1010.5  Z " stroke-width="1" stroke="#797979" fill="none" />
  <path d="M 538 1019  C 536.32 1019  535 1017.68  535 1016  C 535 1014.32  536.32 1013  538 1013  C 539.68 1013  541 1014.32  541 1016  C 541 1017.68  539.68 1019  538 1019  " fill-rule="nonzero" fill="#797979" stroke="none" />
</svg>