<?xml version="1.0" encoding="utf-8"?>
<svg version="1.1" xmlns:xlink="http://www.w3.org/1999/xlink" width="12px" height="12px" viewBox="1662 927  12 12" xmlns="http://www.w3.org/2000/svg">
  <path d="M 1668 927  C 1671.36 927  1674 929.64  1674 933  C 1674 936.36  1671.36 939  1668 939  C 1664.64 939  1662 936.36  1662 933  C 1662 929.64  1664.64 927  1668 927  Z " fill-rule="nonzero" fill="#ffffff" stroke="none" />
  <path d="M 1668 927.5  C 1671.08 927.5  1673.5 929.92  1673.5 933  C 1673.5 936.08  1671.08 938.5  1668 938.5  C 1664.92 938.5  1662.5 936.08  1662.5 933  C 1662.5 929.92  1664.92 927.5  1668 927.5  Z " stroke-width="1" stroke="#797979" fill="none" />
  <path d="M 1668 936  C 1666.32 936  1665 934.68  1665 933  C 1665 931.32  1666.32 930  1668 930  C 1669.68 930  1671 931.32  1671 933  C 1671 934.68  1669.68 936  1668 936  " fill-rule="nonzero" fill="#797979" stroke="none" />
</svg>