<?xml version="1.0" encoding="utf-8"?>
<svg version="1.1" xmlns:xlink="http://www.w3.org/1999/xlink" width="12px" height="12px" viewBox="2322 930  12 12" xmlns="http://www.w3.org/2000/svg">
  <path d="M 2328 930  C 2331.36 930  2334 932.64  2334 936  C 2334 939.36  2331.36 942  2328 942  C 2324.64 942  2322 939.36  2322 936  C 2322 932.64  2324.64 930  2328 930  Z " fill-rule="nonzero" fill="#f0f0f0" stroke="none" />
  <path d="M 2328 930.5  C 2331.08 930.5  2333.5 932.92  2333.5 936  C 2333.5 939.08  2331.08 941.5  2328 941.5  C 2324.92 941.5  2322.5 939.08  2322.5 936  C 2322.5 932.92  2324.92 930.5  2328 930.5  Z " stroke-width="1" stroke="#797979" fill="none" />
  <path d="M 2328 939  C 2326.32 939  2325 937.68  2325 936  C 2325 934.32  2326.32 933  2328 933  C 2329.68 933  2331 934.32  2331 936  C 2331 937.68  2329.68 939  2328 939  " fill-rule="nonzero" fill="#797979" stroke="none" />
</svg>