<?xml version="1.0" encoding="utf-8"?>
<svg version="1.1" xmlns:xlink="http://www.w3.org/1999/xlink" width="300px" height="112px" viewBox="532 1324  300 112" xmlns="http://www.w3.org/2000/svg">
  <path d="M 533 1329  A 4 4 0 0 1 537 1325 L 827 1325  A 4 4 0 0 1 831 1329 L 831 1431  A 4 4 0 0 1 827 1435 L 537 1435  A 4 4 0 0 1 533 1431 L 533 1329  Z " fill-rule="nonzero" fill="#f0f0f0" stroke="none" />
  <path d="M 532.5 1329  A 4.5 4.5 0 0 1 537 1324.5 L 827 1324.5  A 4.5 4.5 0 0 1 831.5 1329 L 831.5 1431  A 4.5 4.5 0 0 1 827 1435.5 L 537 1435.5  A 4.5 4.5 0 0 1 532.5 1431 L 532.5 1329  Z " stroke-width="1" stroke="#797979" fill="none" stroke-opacity="0.337254901960784" />
</svg>