<?xml version="1.0" encoding="utf-8"?>
<svg version="1.1" xmlns:xlink="http://www.w3.org/1999/xlink" width="280px" height="44px" viewBox="532 692  280 44" xmlns="http://www.w3.org/2000/svg">
  <path d="M 533 697  A 4 4 0 0 1 537 693 L 807 693  A 4 4 0 0 1 811 697 L 811 731  A 4 4 0 0 1 807 735 L 537 735  A 4 4 0 0 1 533 731 L 533 697  Z " fill-rule="nonzero" fill="#f0f0f0" stroke="none" />
  <path d="M 532.5 697  A 4.5 4.5 0 0 1 537 692.5 L 807 692.5  A 4.5 4.5 0 0 1 811.5 697 L 811.5 731  A 4.5 4.5 0 0 1 807 735.5 L 537 735.5  A 4.5 4.5 0 0 1 532.5 731 L 532.5 697  Z " stroke-width="1" stroke="#797979" fill="none" stroke-opacity="0.337254901960784" />
</svg>