<?xml version="1.0" encoding="utf-8"?>
<svg version="1.1" xmlns:xlink="http://www.w3.org/1999/xlink" width="12px" height="12px" viewBox="532 929  12 12" xmlns="http://www.w3.org/2000/svg">
  <path d="M 538 929  C 541.36 929  544 931.64  544 935  C 544 938.36  541.36 941  538 941  C 534.64 941  532 938.36  532 935  C 532 931.64  534.64 929  538 929  Z " fill-rule="nonzero" fill="#ffffff" stroke="none" />
  <path d="M 538 929.5  C 541.08 929.5  543.5 931.92  543.5 935  C 543.5 938.08  541.08 940.5  538 940.5  C 534.92 940.5  532.5 938.08  532.5 935  C 532.5 931.92  534.92 929.5  538 929.5  Z " stroke-width="1" stroke="#797979" fill="none" />
  <path d="M 538 938  C 536.32 938  535 936.68  535 935  C 535 933.32  536.32 932  538 932  C 539.68 932  541 933.32  541 935  C 541 936.68  539.68 938  538 938  " fill-rule="nonzero" fill="#797979" stroke="none" />
</svg>