<?xml version="1.0" encoding="utf-8"?>
<svg version="1.1" xmlns:xlink="http://www.w3.org/1999/xlink" width="12px" height="12px" viewBox="532 969  12 12" xmlns="http://www.w3.org/2000/svg">
  <path d="M 538 969  C 541.36 969  544 971.64  544 975  C 544 978.36  541.36 981  538 981  C 534.64 981  532 978.36  532 975  C 532 971.64  534.64 969  538 969  Z " fill-rule="nonzero" fill="#ffffff" stroke="none" />
  <path d="M 538 969.5  C 541.08 969.5  543.5 971.92  543.5 975  C 543.5 978.08  541.08 980.5  538 980.5  C 534.92 980.5  532.5 978.08  532.5 975  C 532.5 971.92  534.92 969.5  538 969.5  Z " stroke-width="1" stroke="#797979" fill="none" />
  <path d="M 538 978  C 536.32 978  535 976.68  535 975  C 535 973.32  536.32 972  538 972  C 539.68 972  541 973.32  541 975  C 541 976.68  539.68 978  538 978  " fill-rule="nonzero" fill="#797979" stroke="none" />
</svg>