<?xml version="1.0" encoding="utf-8"?>
<svg version="1.1" xmlns:xlink="http://www.w3.org/1999/xlink" width="140px" height="44px" viewBox="637 1098  140 44" xmlns="http://www.w3.org/2000/svg">
  <path d="M 638 1103  A 4 4 0 0 1 642 1099 L 772 1099  A 4 4 0 0 1 776 1103 L 776 1137  A 4 4 0 0 1 772 1141 L 642 1141  A 4 4 0 0 1 638 1137 L 638 1103  Z " fill-rule="nonzero" fill="#f0f0f0" stroke="none" />
  <path d="M 637.5 1103  A 4.5 4.5 0 0 1 642 1098.5 L 772 1098.5  A 4.5 4.5 0 0 1 776.5 1103 L 776.5 1137  A 4.5 4.5 0 0 1 772 1141.5 L 642 1141.5  A 4.5 4.5 0 0 1 637.5 1137 L 637.5 1103  Z " stroke-width="1" stroke="#797979" fill="none" stroke-opacity="0.337254901960784" />
</svg>