<?xml version="1.0" encoding="utf-8"?>
<svg version="1.1" xmlns:xlink="http://www.w3.org/1999/xlink" width="300px" height="74px" viewBox="532 1128  300 74" xmlns="http://www.w3.org/2000/svg">
  <path d="M 533 1133  A 4 4 0 0 1 537 1129 L 827 1129  A 4 4 0 0 1 831 1133 L 831 1197  A 4 4 0 0 1 827 1201 L 537 1201  A 4 4 0 0 1 533 1197 L 533 1133  Z " fill-rule="nonzero" fill="#f0f0f0" stroke="none" />
  <path d="M 532.5 1133  A 4.5 4.5 0 0 1 537 1128.5 L 827 1128.5  A 4.5 4.5 0 0 1 831.5 1133 L 831.5 1197  A 4.5 4.5 0 0 1 827 1201.5 L 537 1201.5  A 4.5 4.5 0 0 1 532.5 1197 L 532.5 1133  Z " stroke-width="1" stroke="#797979" fill="none" stroke-opacity="0.337254901960784" />
</svg>