<?xml version="1.0" encoding="utf-8"?>
<svg version="1.1" xmlns:xlink="http://www.w3.org/1999/xlink" width="12px" height="12px" viewBox="1102 930  12 12" xmlns="http://www.w3.org/2000/svg">
  <path d="M 1108 930  C 1111.36 930  1114 932.64  1114 936  C 1114 939.36  1111.36 942  1108 942  C 1104.64 942  1102 939.36  1102 936  C 1102 932.64  1104.64 930  1108 930  Z " fill-rule="nonzero" fill="#ffffff" stroke="none" />
  <path d="M 1108 930.5  C 1111.08 930.5  1113.5 932.92  1113.5 936  C 1113.5 939.08  1111.08 941.5  1108 941.5  C 1104.92 941.5  1102.5 939.08  1102.5 936  C 1102.5 932.92  1104.92 930.5  1108 930.5  Z " stroke-width="1" stroke="#797979" fill="none" />
  <path d="M 1108 939  C 1106.32 939  1105 937.68  1105 936  C 1105 934.32  1106.32 933  1108 933  C 1109.68 933  1111 934.32  1111 936  C 1111 937.68  1109.68 939  1108 939  " fill-rule="nonzero" fill="#797979" stroke="none" />
</svg>