<?xml version="1.0" encoding="utf-8"?>
<svg version="1.1" xmlns:xlink="http://www.w3.org/1999/xlink" width="12px" height="12px" viewBox="532 643  12 12" xmlns="http://www.w3.org/2000/svg">
  <path d="M 538 643  C 541.36 643  544 645.64  544 649  C 544 652.36  541.36 655  538 655  C 534.64 655  532 652.36  532 649  C 532 645.64  534.64 643  538 643  Z " fill-rule="nonzero" fill="#ffffff" stroke="none" />
  <path d="M 538 643.5  C 541.08 643.5  543.5 645.92  543.5 649  C 543.5 652.08  541.08 654.5  538 654.5  C 534.92 654.5  532.5 652.08  532.5 649  C 532.5 645.92  534.92 643.5  538 643.5  Z " stroke-width="1" stroke="#797979" fill="none" />
  <path d="M 538 652  C 536.32 652  535 650.68  535 649  C 535 647.32  536.32 646  538 646  C 539.68 646  541 647.32  541 649  C 541 650.68  539.68 652  538 652  " fill-rule="nonzero" fill="#797979" stroke="none" />
</svg>