<?xml version="1.0" encoding="utf-8"?>
<svg version="1.1" xmlns:xlink="http://www.w3.org/1999/xlink" width="300px" height="112px" viewBox="532 1354  300 112" xmlns="http://www.w3.org/2000/svg">
  <path d="M 533 1359  A 4 4 0 0 1 537 1355 L 827 1355  A 4 4 0 0 1 831 1359 L 831 1461  A 4 4 0 0 1 827 1465 L 537 1465  A 4 4 0 0 1 533 1461 L 533 1359  Z " fill-rule="nonzero" fill="#ffffff" stroke="none" />
  <path d="M 532.5 1359  A 4.5 4.5 0 0 1 537 1354.5 L 827 1354.5  A 4.5 4.5 0 0 1 831.5 1359 L 831.5 1461  A 4.5 4.5 0 0 1 827 1465.5 L 537 1465.5  A 4.5 4.5 0 0 1 532.5 1461 L 532.5 1359  Z " stroke-width="1" stroke="#797979" fill="none" stroke-opacity="0.337254901960784" />
</svg>