<?xml version="1.0" encoding="utf-8"?>
<svg version="1.1" xmlns:xlink="http://www.w3.org/1999/xlink" width="339px" height="44px" viewBox="436 286  339 44" xmlns="http://www.w3.org/2000/svg">
  <path d="M 437 291  A 4 4 0 0 1 441 287 L 770 287  A 4 4 0 0 1 774 291 L 774 325  A 4 4 0 0 1 770 329 L 441 329  A 4 4 0 0 1 437 325 L 437 291  Z " fill-rule="nonzero" fill="#f0f0f0" stroke="none" />
  <path d="M 436.5 291  A 4.5 4.5 0 0 1 441 286.5 L 770 286.5  A 4.5 4.5 0 0 1 774.5 291 L 774.5 325  A 4.5 4.5 0 0 1 770 329.5 L 441 329.5  A 4.5 4.5 0 0 1 436.5 325 L 436.5 291  Z " stroke-width="1" stroke="#797979" fill="none" stroke-opacity="0.337254901960784" />
</svg>