<?xml version="1.0" encoding="utf-8"?>
<svg version="1.1" xmlns:xlink="http://www.w3.org/1999/xlink" width="271px" height="44px" viewBox="920 286  271 44" xmlns="http://www.w3.org/2000/svg">
  <path d="M 921 291  A 4 4 0 0 1 925 287 L 1186 287  A 4 4 0 0 1 1190 291 L 1190 325  A 4 4 0 0 1 1186 329 L 925 329  A 4 4 0 0 1 921 325 L 921 291  Z " fill-rule="nonzero" fill="#ffffff" stroke="none" />
  <path d="M 920.5 291  A 4.5 4.5 0 0 1 925 286.5 L 1186 286.5  A 4.5 4.5 0 0 1 1190.5 291 L 1190.5 325  A 4.5 4.5 0 0 1 1186 329.5 L 925 329.5  A 4.5 4.5 0 0 1 920.5 325 L 920.5 291  Z " stroke-width="1" stroke="#797979" fill="none" stroke-opacity="0.337254901960784" />
</svg>