<?xml version="1.0" encoding="utf-8"?>
<svg version="1.1" xmlns:xlink="http://www.w3.org/1999/xlink" width="80px" height="44px" viewBox="691 346  80 44" xmlns="http://www.w3.org/2000/svg">
  <path d="M 692 351  A 4 4 0 0 1 696 347 L 766 347  A 4 4 0 0 1 770 351 L 770 385  A 4 4 0 0 1 766 389 L 696 389  A 4 4 0 0 1 692 385 L 692 351  Z " fill-rule="nonzero" fill="#f0f0f0" stroke="none" />
  <path d="M 691.5 351  A 4.5 4.5 0 0 1 696 346.5 L 766 346.5  A 4.5 4.5 0 0 1 770.5 351 L 770.5 385  A 4.5 4.5 0 0 1 766 389.5 L 696 389.5  A 4.5 4.5 0 0 1 691.5 385 L 691.5 351  Z " stroke-width="1" stroke="#797979" fill="none" stroke-opacity="0.337254901960784" />
</svg>