<?xml version="1.0" encoding="utf-8"?>
<svg version="1.1" xmlns:xlink="http://www.w3.org/1999/xlink" width="12px" height="12px" viewBox="532 1015  12 12" xmlns="http://www.w3.org/2000/svg">
  <path d="M 538 1015  C 541.36 1015  544 1017.64  544 1021  C 544 1024.36  541.36 1027  538 1027  C 534.64 1027  532 1024.36  532 1021  C 532 1017.64  534.64 1015  538 1015  Z " fill-rule="nonzero" fill="#f0f0f0" stroke="none" />
  <path d="M 538 1015.5  C 541.08 1015.5  543.5 1017.92  543.5 1021  C 543.5 1024.08  541.08 1026.5  538 1026.5  C 534.92 1026.5  532.5 1024.08  532.5 1021  C 532.5 1017.92  534.92 1015.5  538 1015.5  Z " stroke-width="1" stroke="#797979" fill="none" />
  <path d="M 538 1024  C 536.32 1024  535 1022.68  535 1021  C 535 1019.32  536.32 1018  538 1018  C 539.68 1018  541 1019.32  541 1021  C 541 1022.68  539.68 1024  538 1024  " fill-rule="nonzero" fill="#797979" stroke="none" />
</svg>