<?xml version="1.0" encoding="utf-8"?>
<svg version="1.1" xmlns:xlink="http://www.w3.org/1999/xlink" width="271px" height="44px" viewBox="532 570  271 44" xmlns="http://www.w3.org/2000/svg">
  <path d="M 533 575  A 4 4 0 0 1 537 571 L 798 571  A 4 4 0 0 1 802 575 L 802 609  A 4 4 0 0 1 798 613 L 537 613  A 4 4 0 0 1 533 609 L 533 575  Z " fill-rule="nonzero" fill="#f0f0f0" stroke="none" />
  <path d="M 532.5 575  A 4.5 4.5 0 0 1 537 570.5 L 798 570.5  A 4.5 4.5 0 0 1 802.5 575 L 802.5 609  A 4.5 4.5 0 0 1 798 613.5 L 537 613.5  A 4.5 4.5 0 0 1 532.5 609 L 532.5 575  Z " stroke-width="1" stroke="#797979" fill="none" stroke-opacity="0.337254901960784" />
</svg>