<?xml version="1.0" encoding="utf-8"?>
<svg version="1.1" xmlns:xlink="http://www.w3.org/1999/xlink" width="186px" height="44px" viewBox="1214 833  186 44" xmlns="http://www.w3.org/2000/svg">
  <path d="M 1215 838  A 4 4 0 0 1 1219 834 L 1395 834  A 4 4 0 0 1 1399 838 L 1399 872  A 4 4 0 0 1 1395 876 L 1219 876  A 4 4 0 0 1 1215 872 L 1215 838  Z " fill-rule="nonzero" fill="#f0f0f0" stroke="none" />
  <path d="M 1214.5 838  A 4.5 4.5 0 0 1 1219 833.5 L 1395 833.5  A 4.5 4.5 0 0 1 1399.5 838 L 1399.5 872  A 4.5 4.5 0 0 1 1395 876.5 L 1219 876.5  A 4.5 4.5 0 0 1 1214.5 872 L 1214.5 838  Z " stroke-width="1" stroke="#797979" fill="none" stroke-opacity="0.337254901960784" />
</svg>