<?xml version="1.0" encoding="utf-8"?>
<svg version="1.1" xmlns:xlink="http://www.w3.org/1999/xlink" width="12px" height="12px" viewBox="1190 1161  12 12" xmlns="http://www.w3.org/2000/svg">
  <path d="M 1196 1161  C 1199.36 1161  1202 1163.64  1202 1167  C 1202 1170.36  1199.36 1173  1196 1173  C 1192.64 1173  1190 1170.36  1190 1167  C 1190 1163.64  1192.64 1161  1196 1161  Z " fill-rule="nonzero" fill="#f0f0f0" stroke="none" />
  <path d="M 1196 1161.5  C 1199.08 1161.5  1201.5 1163.92  1201.5 1167  C 1201.5 1170.08  1199.08 1172.5  1196 1172.5  C 1192.92 1172.5  1190.5 1170.08  1190.5 1167  C 1190.5 1163.92  1192.92 1161.5  1196 1161.5  Z " stroke-width="1" stroke="#797979" fill="none" />
  <path d="M 1196 1170  C 1194.32 1170  1193 1168.68  1193 1167  C 1193 1165.32  1194.32 1164  1196 1164  C 1197.68 1164  1199 1165.32  1199 1167  C 1199 1168.68  1197.68 1170  1196 1170  " fill-rule="nonzero" fill="#797979" stroke="none" />
</svg>