<?xml version="1.0" encoding="utf-8"?>
<svg version="1.1" xmlns:xlink="http://www.w3.org/1999/xlink" width="12px" height="12px" viewBox="1330 985  12 12" xmlns="http://www.w3.org/2000/svg">
  <path d="M 1336 985  C 1339.36 985  1342 987.64  1342 991  C 1342 994.36  1339.36 997  1336 997  C 1332.64 997  1330 994.36  1330 991  C 1330 987.64  1332.64 985  1336 985  Z " fill-rule="nonzero" fill="#f0f0f0" stroke="none" />
  <path d="M 1336 985.5  C 1339.08 985.5  1341.5 987.92  1341.5 991  C 1341.5 994.08  1339.08 996.5  1336 996.5  C 1332.92 996.5  1330.5 994.08  1330.5 991  C 1330.5 987.92  1332.92 985.5  1336 985.5  Z " stroke-width="1" stroke="#797979" fill="none" />
  <path d="M 1336 994  C 1334.32 994  1333 992.68  1333 991  C 1333 989.32  1334.32 988  1336 988  C 1337.68 988  1339 989.32  1339 991  C 1339 992.68  1337.68 994  1336 994  " fill-rule="nonzero" fill="#797979" stroke="none" />
</svg>