<?xml version="1.0" encoding="utf-8"?>
<svg version="1.1" xmlns:xlink="http://www.w3.org/1999/xlink" width="12px" height="12px" viewBox="1190 1033  12 12" xmlns="http://www.w3.org/2000/svg">
  <path d="M 1196 1033  C 1199.36 1033  1202 1035.64  1202 1039  C 1202 1042.36  1199.36 1045  1196 1045  C 1192.64 1045  1190 1042.36  1190 1039  C 1190 1035.64  1192.64 1033  1196 1033  Z " fill-rule="nonzero" fill="#ffffff" stroke="none" />
  <path d="M 1196 1033.5  C 1199.08 1033.5  1201.5 1035.92  1201.5 1039  C 1201.5 1042.08  1199.08 1044.5  1196 1044.5  C 1192.92 1044.5  1190.5 1042.08  1190.5 1039  C 1190.5 1035.92  1192.92 1033.5  1196 1033.5  Z " stroke-width="1" stroke="#797979" fill="none" />
  <path d="M 1196 1042  C 1194.32 1042  1193 1040.68  1193 1039  C 1193 1037.32  1194.32 1036  1196 1036  C 1197.68 1036  1199 1037.32  1199 1039  C 1199 1040.68  1197.68 1042  1196 1042  " fill-rule="nonzero" fill="#797979" stroke="none" />
</svg>