<?xml version="1.0" encoding="utf-8"?>
<svg version="1.1" xmlns:xlink="http://www.w3.org/1999/xlink" width="136px" height="44px" viewBox="1190 1078  136 44" xmlns="http://www.w3.org/2000/svg">
  <path d="M 1191 1083  A 4 4 0 0 1 1195 1079 L 1321 1079  A 4 4 0 0 1 1325 1083 L 1325 1117  A 4 4 0 0 1 1321 1121 L 1195 1121  A 4 4 0 0 1 1191 1117 L 1191 1083  Z " fill-rule="nonzero" fill="#ffffff" stroke="none" />
  <path d="M 1190.5 1083  A 4.5 4.5 0 0 1 1195 1078.5 L 1321 1078.5  A 4.5 4.5 0 0 1 1325.5 1083 L 1325.5 1117  A 4.5 4.5 0 0 1 1321 1121.5 L 1195 1121.5  A 4.5 4.5 0 0 1 1190.5 1117 L 1190.5 1083  Z " stroke-width="1" stroke="#797979" fill="none" stroke-opacity="0.337254901960784" />
</svg>