<?xml version="1.0" encoding="utf-8"?>
<svg version="1.1" xmlns:xlink="http://www.w3.org/1999/xlink" width="12px" height="12px" viewBox="1190 1307  12 12" xmlns="http://www.w3.org/2000/svg">
  <path d="M 1196 1307  C 1199.36 1307  1202 1309.64  1202 1313  C 1202 1316.36  1199.36 1319  1196 1319  C 1192.64 1319  1190 1316.36  1190 1313  C 1190 1309.64  1192.64 1307  1196 1307  Z " fill-rule="nonzero" fill="#ffffff" stroke="none" />
  <path d="M 1196 1307.5  C 1199.08 1307.5  1201.5 1309.92  1201.5 1313  C 1201.5 1316.08  1199.08 1318.5  1196 1318.5  C 1192.92 1318.5  1190.5 1316.08  1190.5 1313  C 1190.5 1309.92  1192.92 1307.5  1196 1307.5  Z " stroke-width="1" stroke="#797979" fill="none" />
  <path d="M 1196 1316  C 1194.32 1316  1193 1314.68  1193 1313  C 1193 1311.32  1194.32 1310  1196 1310  C 1197.68 1310  1199 1311.32  1199 1313  C 1199 1314.68  1197.68 1316  1196 1316  " fill-rule="nonzero" fill="#797979" stroke="none" />
</svg>