<?xml version="1.0" encoding="utf-8"?>
<svg version="1.1" xmlns:xlink="http://www.w3.org/1999/xlink" width="146px" height="44px" viewBox="532 520  146 44" xmlns="http://www.w3.org/2000/svg">
  <path d="M 533 525  A 4 4 0 0 1 537 521 L 673 521  A 4 4 0 0 1 677 525 L 677 559  A 4 4 0 0 1 673 563 L 537 563  A 4 4 0 0 1 533 559 L 533 525  Z " fill-rule="nonzero" fill="#f0f0f0" stroke="none" />
  <path d="M 532.5 525  A 4.5 4.5 0 0 1 537 520.5 L 673 520.5  A 4.5 4.5 0 0 1 677.5 525 L 677.5 559  A 4.5 4.5 0 0 1 673 563.5 L 537 563.5  A 4.5 4.5 0 0 1 532.5 559 L 532.5 525  Z " stroke-width="1" stroke="#797979" fill="none" stroke-opacity="0.337254901960784" />
</svg>