<?xml version="1.0" encoding="utf-8"?>
<svg version="1.1" xmlns:xlink="http://www.w3.org/1999/xlink" width="280px" height="120px" viewBox="1190 1130  280 120" xmlns="http://www.w3.org/2000/svg">
  <path d="M 1191 1135  A 4 4 0 0 1 1195 1131 L 1465 1131  A 4 4 0 0 1 1469 1135 L 1469 1245  A 4 4 0 0 1 1465 1249 L 1195 1249  A 4 4 0 0 1 1191 1245 L 1191 1135  Z " fill-rule="nonzero" fill="#ffffff" stroke="none" />
  <path d="M 1190.5 1135  A 4.5 4.5 0 0 1 1195 1130.5 L 1465 1130.5  A 4.5 4.5 0 0 1 1469.5 1135 L 1469.5 1245  A 4.5 4.5 0 0 1 1465 1249.5 L 1195 1249.5  A 4.5 4.5 0 0 1 1190.5 1245 L 1190.5 1135  Z " stroke-width="1" stroke="#797979" fill="none" stroke-opacity="0.337254901960784" />
</svg>