<?xml version="1.0" encoding="utf-8"?>
<svg version="1.1" xmlns:xlink="http://www.w3.org/1999/xlink" width="80px" height="44px" viewBox="691 376  80 44" xmlns="http://www.w3.org/2000/svg">
  <path d="M 692 381  A 4 4 0 0 1 696 377 L 766 377  A 4 4 0 0 1 770 381 L 770 415  A 4 4 0 0 1 766 419 L 696 419  A 4 4 0 0 1 692 415 L 692 381  Z " fill-rule="nonzero" fill="#f0f0f0" stroke="none" />
  <path d="M 691.5 381  A 4.5 4.5 0 0 1 696 376.5 L 766 376.5  A 4.5 4.5 0 0 1 770.5 381 L 770.5 415  A 4.5 4.5 0 0 1 766 419.5 L 696 419.5  A 4.5 4.5 0 0 1 691.5 415 L 691.5 381  Z " stroke-width="1" stroke="#797979" fill="none" stroke-opacity="0.337254901960784" />
</svg>