<?xml version="1.0" encoding="utf-8"?>
<svg version="1.1" xmlns:xlink="http://www.w3.org/1999/xlink" width="136px" height="44px" viewBox="1190 959  136 44" xmlns="http://www.w3.org/2000/svg">
  <path d="M 1191 964  A 4 4 0 0 1 1195 960 L 1321 960  A 4 4 0 0 1 1325 964 L 1325 998  A 4 4 0 0 1 1321 1002 L 1195 1002  A 4 4 0 0 1 1191 998 L 1191 964  Z " fill-rule="nonzero" fill="#ffffff" stroke="none" />
  <path d="M 1190.5 964  A 4.5 4.5 0 0 1 1195 959.5 L 1321 959.5  A 4.5 4.5 0 0 1 1325.5 964 L 1325.5 998  A 4.5 4.5 0 0 1 1321 1002.5 L 1195 1002.5  A 4.5 4.5 0 0 1 1190.5 998 L 1190.5 964  Z " stroke-width="1" stroke="#797979" fill="none" stroke-opacity="0.337254901960784" />
</svg>