<?xml version="1.0" encoding="utf-8"?>
<svg version="1.1" xmlns:xlink="http://www.w3.org/1999/xlink" width="12px" height="12px" viewBox="712 896  12 12" xmlns="http://www.w3.org/2000/svg">
  <path d="M 718 896  C 721.36 896  724 898.64  724 902  C 724 905.36  721.36 908  718 908  C 714.64 908  712 905.36  712 902  C 712 898.64  714.64 896  718 896  Z " fill-rule="nonzero" fill="#ffffff" stroke="none" />
  <path d="M 718 896.5  C 721.08 896.5  723.5 898.92  723.5 902  C 723.5 905.08  721.08 907.5  718 907.5  C 714.92 907.5  712.5 905.08  712.5 902  C 712.5 898.92  714.92 896.5  718 896.5  Z " stroke-width="1" stroke="#797979" fill="none" />
  <path d="M 718 905  C 716.32 905  715 903.68  715 902  C 715 900.32  716.32 899  718 899  C 719.68 899  721 900.32  721 902  C 721 903.68  719.68 905  718 905  " fill-rule="nonzero" fill="#797979" stroke="none" />
</svg>