<?xml version="1.0" encoding="utf-8"?>
<svg version="1.1" xmlns:xlink="http://www.w3.org/1999/xlink" width="280px" height="120px" viewBox="1190 1059  280 120" xmlns="http://www.w3.org/2000/svg">
  <path d="M 1191 1064  A 4 4 0 0 1 1195 1060 L 1465 1060  A 4 4 0 0 1 1469 1064 L 1469 1174  A 4 4 0 0 1 1465 1178 L 1195 1178  A 4 4 0 0 1 1191 1174 L 1191 1064  Z " fill-rule="nonzero" fill="#ffffff" stroke="none" />
  <path d="M 1190.5 1064  A 4.5 4.5 0 0 1 1195 1059.5 L 1465 1059.5  A 4.5 4.5 0 0 1 1469.5 1064 L 1469.5 1174  A 4.5 4.5 0 0 1 1465 1178.5 L 1195 1178.5  A 4.5 4.5 0 0 1 1190.5 1174 L 1190.5 1064  Z " stroke-width="1" stroke="#797979" fill="none" stroke-opacity="0.337254901960784" />
</svg>