<?xml version="1.0" encoding="utf-8"?>
<svg version="1.1" xmlns:xlink="http://www.w3.org/1999/xlink" width="12px" height="12px" viewBox="1190 1025  12 12" xmlns="http://www.w3.org/2000/svg">
  <path d="M 1196 1025  C 1199.36 1025  1202 1027.64  1202 1031  C 1202 1034.36  1199.36 1037  1196 1037  C 1192.64 1037  1190 1034.36  1190 1031  C 1190 1027.64  1192.64 1025  1196 1025  Z " fill-rule="nonzero" fill="#ffffff" stroke="none" />
  <path d="M 1196 1025.5  C 1199.08 1025.5  1201.5 1027.92  1201.5 1031  C 1201.5 1034.08  1199.08 1036.5  1196 1036.5  C 1192.92 1036.5  1190.5 1034.08  1190.5 1031  C 1190.5 1027.92  1192.92 1025.5  1196 1025.5  Z " stroke-width="1" stroke="#797979" fill="none" />
  <path d="M 1196 1034  C 1194.32 1034  1193 1032.68  1193 1031  C 1193 1029.32  1194.32 1028  1196 1028  C 1197.68 1028  1199 1029.32  1199 1031  C 1199 1032.68  1197.68 1034  1196 1034  " fill-rule="nonzero" fill="#797979" stroke="none" />
</svg>