<?xml version="1.0" encoding="utf-8"?>
<svg version="1.1" xmlns:xlink="http://www.w3.org/1999/xlink" width="12px" height="12px" viewBox="1330 866  12 12" xmlns="http://www.w3.org/2000/svg">
  <path d="M 1336 866  C 1339.36 866  1342 868.64  1342 872  C 1342 875.36  1339.36 878  1336 878  C 1332.64 878  1330 875.36  1330 872  C 1330 868.64  1332.64 866  1336 866  Z " fill-rule="nonzero" fill="#f0f0f0" stroke="none" />
  <path d="M 1336 866.5  C 1339.08 866.5  1341.5 868.92  1341.5 872  C 1341.5 875.08  1339.08 877.5  1336 877.5  C 1332.92 877.5  1330.5 875.08  1330.5 872  C 1330.5 868.92  1332.92 866.5  1336 866.5  Z " stroke-width="1" stroke="#797979" fill="none" />
  <path d="M 1336 875  C 1334.32 875  1333 873.68  1333 872  C 1333 870.32  1334.32 869  1336 869  C 1337.68 869  1339 870.32  1339 872  C 1339 873.68  1337.68 875  1336 875  " fill-rule="nonzero" fill="#797979" stroke="none" />
</svg>