<?xml version="1.0" encoding="utf-8"?>
<svg version="1.1" xmlns:xlink="http://www.w3.org/1999/xlink" width="12px" height="12px" viewBox="1190 914  12 12" xmlns="http://www.w3.org/2000/svg">
  <path d="M 1196 914  C 1199.36 914  1202 916.64  1202 920  C 1202 923.36  1199.36 926  1196 926  C 1192.64 926  1190 923.36  1190 920  C 1190 916.64  1192.64 914  1196 914  Z " fill-rule="nonzero" fill="#f0f0f0" stroke="none" />
  <path d="M 1196 914.5  C 1199.08 914.5  1201.5 916.92  1201.5 920  C 1201.5 923.08  1199.08 925.5  1196 925.5  C 1192.92 925.5  1190.5 923.08  1190.5 920  C 1190.5 916.92  1192.92 914.5  1196 914.5  Z " stroke-width="1" stroke="#797979" fill="none" />
  <path d="M 1196 923  C 1194.32 923  1193 921.68  1193 920  C 1193 918.32  1194.32 917  1196 917  C 1197.68 917  1199 918.32  1199 920  C 1199 921.68  1197.68 923  1196 923  " fill-rule="nonzero" fill="#797979" stroke="none" />
</svg>