<?xml version="1.0" encoding="utf-8"?>
<svg version="1.1" xmlns:xlink="http://www.w3.org/1999/xlink" width="12px" height="12px" viewBox="1330 914  12 12" xmlns="http://www.w3.org/2000/svg">
  <path d="M 1336 914  C 1339.36 914  1342 916.64  1342 920  C 1342 923.36  1339.36 926  1336 926  C 1332.64 926  1330 923.36  1330 920  C 1330 916.64  1332.64 914  1336 914  Z " fill-rule="nonzero" fill="#f0f0f0" stroke="none" />
  <path d="M 1336 914.5  C 1339.08 914.5  1341.5 916.92  1341.5 920  C 1341.5 923.08  1339.08 925.5  1336 925.5  C 1332.92 925.5  1330.5 923.08  1330.5 920  C 1330.5 916.92  1332.92 914.5  1336 914.5  Z " stroke-width="1" stroke="#797979" fill="none" />
  <path d="M 1336 923  C 1334.32 923  1333 921.68  1333 920  C 1333 918.32  1334.32 917  1336 917  C 1337.68 917  1339 918.32  1339 920  C 1339 921.68  1337.68 923  1336 923  " fill-rule="nonzero" fill="#797979" stroke="none" />
</svg>