<?xml version="1.0" encoding="utf-8"?>
<svg version="1.1" xmlns:xlink="http://www.w3.org/1999/xlink" width="12px" height="12px" viewBox="1190 866  12 12" xmlns="http://www.w3.org/2000/svg">
  <path d="M 1196 866  C 1199.36 866  1202 868.64  1202 872  C 1202 875.36  1199.36 878  1196 878  C 1192.64 878  1190 875.36  1190 872  C 1190 868.64  1192.64 866  1196 866  Z " fill-rule="nonzero" fill="#ffffff" stroke="none" />
  <path d="M 1196 866.5  C 1199.08 866.5  1201.5 868.92  1201.5 872  C 1201.5 875.08  1199.08 877.5  1196 877.5  C 1192.92 877.5  1190.5 875.08  1190.5 872  C 1190.5 868.92  1192.92 866.5  1196 866.5  Z " stroke-width="1" stroke="#797979" fill="none" />
  <path d="M 1196 875  C 1194.32 875  1193 873.68  1193 872  C 1193 870.32  1194.32 869  1196 869  C 1197.68 869  1199 870.32  1199 872  C 1199 873.68  1197.68 875  1196 875  " fill-rule="nonzero" fill="#797979" stroke="none" />
</svg>