<?xml version="1.0" encoding="utf-8"?>
<svg version="1.1" xmlns:xlink="http://www.w3.org/1999/xlink" width="280px" height="120px" viewBox="1190 1011  280 120" xmlns="http://www.w3.org/2000/svg">
  <path d="M 1191 1016  A 4 4 0 0 1 1195 1012 L 1465 1012  A 4 4 0 0 1 1469 1016 L 1469 1126  A 4 4 0 0 1 1465 1130 L 1195 1130  A 4 4 0 0 1 1191 1126 L 1191 1016  Z " fill-rule="nonzero" fill="#f0f0f0" stroke="none" />
  <path d="M 1190.5 1016  A 4.5 4.5 0 0 1 1195 1011.5 L 1465 1011.5  A 4.5 4.5 0 0 1 1469.5 1016 L 1469.5 1126  A 4.5 4.5 0 0 1 1465 1130.5 L 1195 1130.5  A 4.5 4.5 0 0 1 1190.5 1126 L 1190.5 1016  Z " stroke-width="1" stroke="#797979" fill="none" stroke-opacity="0.337254901960784" />
</svg>