<?xml version="1.0" encoding="utf-8"?>
<svg version="1.1" xmlns:xlink="http://www.w3.org/1999/xlink" width="12px" height="12px" viewBox="532 1063  12 12" xmlns="http://www.w3.org/2000/svg">
  <path d="M 538 1063  C 541.36 1063  544 1065.64  544 1069  C 544 1072.36  541.36 1075  538 1075  C 534.64 1075  532 1072.36  532 1069  C 532 1065.64  534.64 1063  538 1063  Z " fill-rule="nonzero" fill="#ffffff" stroke="none" />
  <path d="M 538 1063.5  C 541.08 1063.5  543.5 1065.92  543.5 1069  C 543.5 1072.08  541.08 1074.5  538 1074.5  C 534.92 1074.5  532.5 1072.08  532.5 1069  C 532.5 1065.92  534.92 1063.5  538 1063.5  Z " stroke-width="1" stroke="#797979" fill="none" />
  <path d="M 538 1072  C 536.32 1072  535 1070.68  535 1069  C 535 1067.32  536.32 1066  538 1066  C 539.68 1066  541 1067.32  541 1069  C 541 1070.68  539.68 1072  538 1072  " fill-rule="nonzero" fill="#797979" stroke="none" />
</svg>