<?xml version="1.0" encoding="utf-8"?>
<svg version="1.1" xmlns:xlink="http://www.w3.org/1999/xlink" width="12px" height="12px" viewBox="532 1095  12 12" xmlns="http://www.w3.org/2000/svg">
  <path d="M 538 1095  C 541.36 1095  544 1097.64  544 1101  C 544 1104.36  541.36 1107  538 1107  C 534.64 1107  532 1104.36  532 1101  C 532 1097.64  534.64 1095  538 1095  Z " fill-rule="nonzero" fill="#f0f0f0" stroke="none" />
  <path d="M 538 1095.5  C 541.08 1095.5  543.5 1097.92  543.5 1101  C 543.5 1104.08  541.08 1106.5  538 1106.5  C 534.92 1106.5  532.5 1104.08  532.5 1101  C 532.5 1097.92  534.92 1095.5  538 1095.5  Z " stroke-width="1" stroke="#797979" fill="none" />
  <path d="M 538 1104  C 536.32 1104  535 1102.68  535 1101  C 535 1099.32  536.32 1098  538 1098  C 539.68 1098  541 1099.32  541 1101  C 541 1102.68  539.68 1104  538 1104  " fill-rule="nonzero" fill="#797979" stroke="none" />
</svg>