<?xml version="1.0" encoding="utf-8"?>
<svg version="1.1" xmlns:xlink="http://www.w3.org/1999/xlink" width="339px" height="44px" viewBox="1021 286  339 44" xmlns="http://www.w3.org/2000/svg">
  <path d="M 1022 291  A 4 4 0 0 1 1026 287 L 1355 287  A 4 4 0 0 1 1359 291 L 1359 325  A 4 4 0 0 1 1355 329 L 1026 329  A 4 4 0 0 1 1022 325 L 1022 291  Z " fill-rule="nonzero" fill="#ffffff" stroke="none" />
  <path d="M 1021.5 291  A 4.5 4.5 0 0 1 1026 286.5 L 1355 286.5  A 4.5 4.5 0 0 1 1359.5 291 L 1359.5 325  A 4.5 4.5 0 0 1 1355 329.5 L 1026 329.5  A 4.5 4.5 0 0 1 1021.5 325 L 1021.5 291  Z " stroke-width="1" stroke="#797979" fill="none" stroke-opacity="0.337254901960784" />
</svg>